<svg xmlns="http://www.w3.org/2000/svg" width="160" height="160" viewBox="0 0 320 320" version="1"><title>Alarm</title><desc>Alarm</desc><g stroke="none" stroke-width="1" fill="none" fill-rule="evenodd"><g transform="translate(-624.000000, -409.000000)" fill="#33495f"><path d="M795 599L795 599 725 591C720 591 716 587 716 582 716 577 720 573 725 572L769 568 774 515C775 510 779 507 784 507 789 507 793 510 794 515L801 592C801 596 798 599 795 599M784 429C701 429 634 496 634 579 634 662 701 729 784 729 867 729 934 662 934 579 934 496 867 429 784 429M884 409C870 409 858 414 848 422 885 437 916 465 935 500 940 491 944 481 944 469 944 436 917 409 884 409M720 422C710 414 698 409 684 409 651 409 624 436 624 469 624 481 628 491 633 500 652 465 683 437 720 422"/></g></g></svg>