<svg xmlns="http://www.w3.org/2000/svg" width="160" height="160" viewBox="0 0 160 160"><title>Time</title><desc></desc><g fill="none"><g fill="#33495F"><path d="M80 0C35.8 0 0 35.8 0 80 0 124.2 35.8 160 80 160 124.2 160 160 124.2 160 80 160 35.8 124.2 0 80 0L80 0ZM80 145.5C43.9 145.5 14.5 116.1 14.5 80 14.5 43.9 43.9 14.5 80 14.5 116.1 14.5 145.5 43.9 145.5 80 145.5 116.1 116.1 145.5 80 145.5L80 145.5ZM87.3 29.1L72.7 29.1 72.7 83 110.9 121.1 121.1 110.9 87.3 77 87.3 29.1 87.3 29.1Z"/></g></g></svg>