<svg xmlns="http://www.w3.org/2000/svg" width="320" height="320" viewBox="0 0 640 640"><title>Earth</title><desc>Earth</desc><g><circle cx="320" cy="320" r="320" fill="#1CAF5E"/><path d="M438.42 442.46C427.18 452.06 404.36 463.76 394.36 480.28 389.36 488.98 389.46 500.68 387.16 511.78 382.04 536.54 374.44 549.4 366.3 555.42 356.68 563.74 345.34 558.62 345.34 558.62 333.94 555.08 324.98 545.4 324.98 545.4 292.8 512.38 313.42 444.56 277.16 407.34 259.98 389.64 238.42 384.24 240.6 355.42 242.16 332.62 257.16 329.92 267.8 312.82 286.26 284.78 235.2 250.12 200.6 250.12 198.9 250.12 197.22 250.22 195.6 250.38 182.6 251.78 174.26 257.82 167.66 257.82 162.66 257.82 158.66 254.38 154.36 242.88 147.8 225.78 152.8 202.96 151.54 183.76 151 174.62 149.12 164.76 146.12 155.06 189.88 108.94 251.56 80 320 80 339 80 357.38 82.44 375.12 86.64 368.04 103.3 356.58 133.58 364.98 141.14 366.9 141.68 368.76 141.92 370.54 141.92 385.46 141.92 396.18 125.44 408.6 125.44 412.4 125.44 416.34 126.96 420.6 130.94 440.6 148.94 416.54 172.06 404.36 184.36 384.36 204.46 388.42 205.68 379.98 229.08 377.02 235.94 374.88 238.6 373.16 238.6 368.36 238.6 366.88 217.82 359.98 209.88 355.84 204.78 348.62 202.88 340.4 202.88 326.38 202.86 309.44 208.44 299.98 213.18 278.74 223.68 274.36 249.78 282.8 270.8 294.04 298.08 315.96 302.76 340.62 302.76 353.44 302.76 367 301.5 380.18 301.5 395.2 301.5 409.74 303.14 422.18 310.12 463.42 332.62 472.8 413.64 438.42 442.46M320 0C143.28 0 0 143.26 0 320 0 496.72 143.28 640 320 640 496.74 640 640 496.72 640 320 640 143.26 496.74 0 320 0" fill="#227EBA"/></g></svg>