<svg xmlns="http://www.w3.org/2000/svg" width="160" height="160" viewBox="0 0 320 320"><title>megaphone</title><desc>Megaphone</desc><g fill="none"><g fill="#33495F"><path d="M182.1 285.7C181.2 288.4 178.4 289.9 175.8 289L123.7 271.2C122 270.6 121.2 269.3 120.8 268.6 120.5 267.9 120 266.4 120.6 264.7L124.2 253.4 185.8 274.4 182.1 285.7 182.1 285.7ZM293.7 1.1L50 84.4 50 228 95.8 243.6 92.1 254.9C89.1 264 89.8 273.8 94 282.4 98.2 290.9 105.4 297.3 114.2 300.4L166.3 318.2C169.9 319.4 173.7 320 177.3 320 192 320 205.6 310.5 210.5 295.5L214.2 284.2 293.7 311.3C306.6 315.7 320 305.8 320 291.8L320 20.5C320 6.5 306.6-3.4 293.7 1.1L293.7 1.1 293.7 1.1ZM15 74.1C6.8 74.1 0 81 0 89.5L0 222.9C0 231.3 6.8 238.2 15 238.2 23.3 238.2 30 231.3 30 222.9L30 89.5C30 81 23.3 74.1 15 74.1L15 74.1 15 74.1Z"/></g></g></svg>